#!OML:ASF F:\VICON\USERDATA\INSTALL\rory3\rory3.ASF
:FULLY-SPECIFIED
:DEGREES
601
root 0.443276 17.8388 5.00137 -6.07274 22.2467 -2.85772
lowerback 12.3691 -0.976603 -2.4198
upperback 1.42989 -1.49583 1.94389
thorax -5.31803 -0.661097 3.66148
lowerneck -0.0773175 -20.9303 -17.104
upperneck 13.2052 -31.8919 21.856
head 10.6877 -14.9649 5.492
rclavicle -7.42336e-016 1.58531e-014
rhumerus -35.9613 40.852 -100.791
rradius 89.1347
rwrist 2.96006
rhand -17.5654 9.02104
rfingers 7.12502
rthumb 8.68976 -20.7801
lclavicle -7.42336e-016 1.58531e-014
lhumerus -40.3361 -23.4767 99.6438
lradius 89.9654
lwrist 2.5727
lhand -10.9682 35.9021
lfingers 7.12502
lthumb 15.0511 65.335
rfemur 1.48513 5.60598 25.6295
rtibia 25.0101
rfoot -16.52 1.76675
rtoes 2.3833
lfemur -16.76 4.72253 -10.892
ltibia 28.5872
lfoot -8.15988 2.42775
ltoes -10.3946
602
root 0.395867 17.8435 4.88466 -5.42892 22.8408 -1.24107
lowerback 13.0306 -1.06779 -3.82867
upperback 1.26295 -1.85735 1.53264
thorax -5.80199 -0.796936 4.11354
lowerneck -0.285803 -21.0459 -16.9339
upperneck 13.5277 -32.0508 21.5756
head 10.7851 -15.0106 5.32169
rclavicle -1.18867e-014 -1.1281e-014
rhumerus -36.1777 40.6549 -100.733
rradius 89.1756
rwrist 2.8395
rhand -17.5163 9.11757
rfingers 7.12502
rthumb 8.73715 -20.6816
lclavicle -1.18867e-014 -1.1281e-014
lhumerus -40.4406 -23.7833 99.82
lradius 89.9708
lwrist 2.10759
lhand -10.84 35.9445
lfingers 7.12502
lthumb 15.1746 65.3681
rfemur 0.774186 5.04336 23.8349
rtibia 25.5846
rfoot -16.6131 1.92583
rtoes 2.42735
lfemur -16.8322 4.57665 -12.8017
ltibia 29.6637
lfoot -8.151 2.33191
ltoes -11.435
603
root 0.336568 17.8468 4.8048 -5.24067 22.9598 -0.825785
lowerback 13.2361 -1.09212 -4.41927
upperback 1.19451 -1.98603 1.51188
thorax -5.95724 -0.839903 4.45914
lowerneck -0.168996 -21.0442 -17.0481
upperneck 13.4878 -32.1146 21.8213
head 10.8372 -15.0405 5.40558
rclavicle -3.43773e-014 1.23246e-014
rhumerus -36.5349 40.4359 -100.685
rradius 89.328
rwrist 2.61063
rhand -17.3905 9.15121
rfingers 7.12502
rthumb 8.8585 -20.6428
lclavicle -3.43773e-014 1.23246e-014
lhumerus -40.4749 -24.0669 100.038
lradius 89.8776
lwrist 1.36525
lhand -9.97896 37.3585
lfingers 7.12502
lthumb 16.0039 66.7174
rfemur 0.252317 5.21779 23.5482
rtibia 25.9353
rfoot -16.4849 1.51115
rtoes 1.84149
lfemur -16.8304 5.02979 -13.2505
ltibia 30.8477
lfoot -8.14384 1.94883
ltoes -11.7453
604
root 0.293042 17.8587 4.75803 -5.18789 23.2295 -0.688059
lowerback 12.91 -1.25165 -4.69597
upperback 1.24153 -2.22 1.56269
thorax -5.68806 -0.95761 4.69576
lowerneck -0.0082327 -21.0299 -17.12
upperneck 13.4647 -32.1194 21.878
head 10.8264 -15.0569 5.44778
rclavicle -5.61753e-014 6.36111e-015
rhumerus -36.9168 40.3853 -100.722
rradius 89.4025
rwrist 2.12384
rhand -17.3769 9.09111
rfingers 7.12502
rthumb 8.87169 -20.7024
lclavicle -5.61753e-014 6.36111e-015
lhumerus -40.5912 -24.2569 100.21
lradius 89.9485
lwrist 0.511315
lhand -8.70113 39.7196
lfingers 7.12502
lthumb 17.2341 68.9754
rfemur 0.0259545 5.1641 23.4968
rtibia 26.0433
rfoot -16.3734 1.22262
rtoes 1.71069
lfemur -16.6725 5.38674 -13.4172
ltibia 32.1296
lfoot -8.36165 1.52266
ltoes -11.5581
605
root 0.279782 17.8796 4.72948 -5.18993 23.4869 -0.718724
lowerback 12.1709 -1.48413 -4.51339
upperback 1.39058 -2.46871 1.56607
thorax -5.09871 -1.10714 4.59828
lowerneck -0.0298817 -21.0487 -17.003
upperneck 13.5721 -32.154 21.7976
head 10.8389 -15.0646 5.40069
rclavicle -6.05672e-015 -6.26172e-015
rhumerus -37.1326 40.3726 -100.709
rradius 89.3873
rwrist 1.31586
rhand -17.4013 9.18138
rfingers 7.12502
rthumb 8.84807 -20.6131
lclavicle -6.05672e-015 -6.26172e-015
lhumerus -40.5565 -24.5801 100.325
lradius 89.9228
lwrist -0.00664845
lhand -7.98539 41.0517
lfingers 7.12502
lthumb 17.9229 70.2458
rfemur 0.0608164 4.94236 23.482
rtibia 25.7709
rfoot -16.1043 1.26656
rtoes 2.4275
lfemur -16.4671 5.44428 -13.4606
ltibia 33.6666
lfoot -8.87172 1.32667
ltoes -11.0054
606
root 0.269415 17.8961 4.68695 -5.47583 23.1567 -1.43452
lowerback 11.7134 -1.58875 -3.56543
upperback 1.45019 -2.4603 1.67998
thorax -4.81799 -1.13017 4.15726
lowerneck -0.105028 -21.083 -16.8904
upperneck 13.8951 -32.2479 21.6617
head 10.9415 -15.0859 5.31405
rclavicle -2.78858e-014 2.78299e-015
rhumerus -37.5019 40.2021 -100.789
rradius 89.5037
rwrist 0.457534
rhand -17.4944 9.38126
rfingers 7.12502
rthumb 8.75826 -20.417
lclavicle -2.78858e-014 2.78299e-015
lhumerus -40.6078 -24.9583 100.481
lradius 89.8259
lwrist -0.188623
lhand -7.45244 42.2896
lfingers 7.12502
lthumb 18.4356 71.436
rfemur 0.0350056 5.20411 24.2224
rtibia 25.3804
rfoot -15.6318 1.27893
rtoes 2.61746
lfemur -16.2939 5.7872 -12.7286
ltibia 35.3118
lfoot -9.25457 1.33005
ltoes -10.5618
607
root 0.247411 17.903 4.62007 -5.68652 22.7895 -1.96327
lowerback 11.6835 -1.63646 -2.86149
upperback 1.39569 -2.42773 1.78584
thorax -4.88677 -1.12376 3.86566
lowerneck -0.0268166 -21.0835 -16.8176
upperneck 14.0564 -32.2836 21.5896
head 10.9661 -15.1008 5.28526
rclavicle 6.03187e-015 5.96354e-016
rhumerus -37.9437 39.9677 -100.88
rradius 89.6483
rwrist -0.299029
rhand -17.591 9.26744
rfingers 7.12502
rthumb 8.66507 -20.5347
lclavicle 6.03187e-015 5.96354e-016
lhumerus -40.7572 -25.3164 100.675
lradius 89.8153
lwrist -0.299185
lhand -8.05124 40.8095
lfingers 7.12502
lthumb 17.8595 70.0094
rfemur -0.12142 5.39174 24.7436
rtibia 25.0348
rfoot -15.1081 1.47998
rtoes 2.84531
lfemur -16.2013 6.11269 -12.1654
ltibia 36.98
lfoot -9.50278 1.35923
ltoes -10.5325
608
root 0.219085 17.9087 4.54929 -5.75605 22.6509 -2.1787
lowerback 11.6364 -1.73705 -2.57141
upperback 1.40295 -2.51884 1.86783
thorax -4.85404 -1.17441 3.79911
lowerneck -0.0399849 -21.0818 -16.6027
upperneck 14.0284 -32.2356 21.4297
head 10.8748 -15.0811 5.22833
rclavicle -6.18158e-014 8.24956e-015
rhumerus -38.2012 39.8525 -100.839
rradius 89.7673
rwrist -0.909389
rhand -17.8411 9.00164
rfingers 7.12502
rthumb 8.42371 -20.8104
lclavicle -6.18158e-014 8.24956e-015
lhumerus -40.769 -25.5921 100.823
lradius 89.8491
lwrist -0.40186
lhand -8.32447 39.7742
lfingers 7.12502
lthumb 17.5966 68.9979
rfemur -0.392486 5.47574 24.9405
rtibia 24.8842
rfoot -14.7366 1.57629
rtoes 3.14329
lfemur -16.1358 6.43116 -11.9376
ltibia 38.6166
lfoot -9.72461 1.19437
ltoes -11.03
609
root 0.1939 17.9187 4.48043 -5.756 22.5963 -2.14648
lowerback 11.5997 -1.85321 -2.54714
upperback 1.38246 -2.66758 1.90633
thorax -4.84218 -1.24815 3.84697
lowerneck 0.123275 -21.0959 -16.7141
upperneck 14.047 -32.3035 21.5233
head 10.9072 -15.1229 5.26892
rclavicle 1.44181e-014 1.68967e-015
rhumerus -38.5004 39.7729 -100.809
rradius 89.8462
rwrist -1.42298
rhand -17.8885 8.9167
rfingers 7.12502
rthumb 8.37792 -20.8971
lclavicle 1.44181e-014 1.68967e-015
lhumerus -40.8041 -25.7499 101.012
lradius 89.8161
lwrist -0.599603
lhand -8.56916 39.0385
lfingers 7.12502
lthumb 17.3611 68.2831
rfemur -0.71237 5.46758 24.864
rtibia 24.9415
rfoot -14.5358 1.61879
rtoes 2.45826
lfemur -15.9629 6.58235 -11.9862
ltibia 40.1639
lfoot -9.90749 1.07715
ltoes -11.9462
610
root 0.170962 17.9287 4.41019 -5.65005 22.5834 -1.91747
lowerback 11.5806 -1.9193 -2.68821
upperback 1.2818 -2.77576 1.87337
thorax -4.92343 -1.29614 3.91052
lowerneck 0.610696 -21.1756 -16.9146
upperneck 13.9189 -32.4951 21.7285
head 10.8949 -15.2528 5.3588
rclavicle 1.82261e-014 -1.27222e-014
rhumerus -38.8802 39.541 -100.802
rradius 89.9373
rwrist -2.10783
rhand -17.7449 8.79323
rfingers 7.12502
rthumb 8.51652 -21.015
lclavicle 1.82261e-014 -1.27222e-014
lhumerus -40.9857 -26.088 101.272
lradius 89.8002
lwrist -0.783645
lhand -8.92204 38.9154
lfingers 7.12502
lthumb 17.0215 68.1896
rfemur -1.11394 5.31883 24.5496
rtibia 25.1016
rfoot -14.3866 1.79929
rtoes 1.80843
lfemur -15.7487 6.6416 -12.2449
ltibia 41.6134
lfoot -10.0608 0.930493
ltoes -11.7202
611
root 0.146138 17.9322 4.34119 -5.63575 22.4841 -1.88619
lowerback 11.4847 -1.99306 -2.66287
upperback 1.27571 -2.86681 1.91325
thorax -4.86796 -1.34272 3.94697
lowerneck 0.855429 -21.222 -17.0756
upperneck 13.8084 -32.6188 21.9412
head 10.9133 -15.3288 5.43591
rclavicle 2.09656e-014 4.17448e-015
rhumerus -39.0317 39.3438 -100.604
rradius 90.0695
rwrist -2.87687
rhand -17.3702 8.58855
rfingers 7.12502
rthumb 8.87812 -21.2047
lclavicle 2.09656e-014 4.17448e-015
lhumerus -40.9633 -26.3736 101.505
lradius 89.789
lwrist -0.984498
lhand -9.35348 39.3418
lfingers 7.12502
lthumb 16.6061 68.6513
rfemur -1.52729 5.30353 24.4693
rtibia 25.2987
rfoot -14.1834 2.01393
rtoes 2.26424
lfemur -15.4362 6.72659 -12.2569
ltibia 42.9803
lfoot -9.97468 0.666019
ltoes -10.4346
